<svg width="205" height="205" viewBox="0 0 205 205" fill="none" xmlns="http://www.w3.org/2000/svg">
<path d="M61.3477 61.7841L66.8706 57.7952C65.1405 55.3998 62.0633 54.3927 59.2517 55.3018C56.44 56.211 54.535 58.8291 54.535 61.7841H61.3477ZM102.224 191.225C53.3108 191.225 13.6589 151.574 13.6589 102.66H0.0335693C0.0335693 159.098 45.7856 204.85 102.224 204.85V191.225ZM190.789 102.66C190.789 151.574 151.138 191.225 102.224 191.225V204.85C158.661 204.85 204.414 159.098 204.414 102.66H190.789ZM102.224 14.0953C151.138 14.0953 190.789 53.7471 190.789 102.66H204.414C204.414 46.222 158.661 0.46991 102.224 0.46991V14.0953ZM102.224 0.46991C45.7856 0.46991 0.0335693 46.222 0.0335693 102.66H13.6589C13.6589 53.7471 53.3108 14.0953 102.224 14.0953V0.46991ZM68.1604 163.974V61.7841H54.535V163.974H68.1604ZM55.8248 65.7729L144.39 188.401L155.435 180.424L66.8706 57.7952L55.8248 65.7729ZM136.287 54.9714V136.724H149.913V54.9714H136.287Z" fill="black"/>
</svg>
