<svg width="205" height="183" viewBox="0 0 205 183" fill="none" xmlns="http://www.w3.org/2000/svg">
<path d="M102.611 72.9245C92.5643 72.9245 84.3827 81.1061 84.3827 91.1527C84.3827 101.199 92.5643 109.381 102.611 109.381C112.657 109.381 120.839 101.199 120.839 91.1527C120.839 81.1061 112.657 72.9245 102.611 72.9245ZM51.5797 127.379L47.5559 126.383C17.6142 118.795 0.420654 105.957 0.420654 91.1207C0.420654 76.284 17.6206 63.4463 47.5559 55.8587L51.5797 54.8623L52.7101 58.8541C55.7375 69.2967 59.6271 79.4774 64.3215 89.326L65.1837 91.1207L64.3215 92.9474C59.6335 102.758 55.7375 112.938 52.7101 123.419L51.5797 127.379ZM45.6973 65.1708C22.9408 71.5577 8.9727 81.3679 8.9727 91.1207C8.9727 100.874 22.9472 110.645 45.6973 117.071C48.4948 108.187 51.8543 99.5386 55.7758 91.1207C51.8479 82.7028 48.4884 74.0549 45.6973 65.1708ZM153.642 127.379L152.512 123.387C149.484 112.945 145.595 102.764 140.9 92.9474L140.038 91.1207L140.9 89.2941C145.588 79.4838 149.484 69.3031 152.512 58.8222L153.642 54.8623L157.666 55.8587C187.608 63.4463 204.801 76.284 204.801 91.1207C204.801 105.957 187.601 118.795 157.666 126.383L153.642 127.379ZM149.446 91.1207C153.54 99.9666 156.931 108.653 159.524 117.071C182.313 110.652 196.249 100.874 196.249 91.1207C196.249 81.3679 182.275 71.596 159.524 65.1708C156.727 74.0166 153.368 82.7028 149.446 91.1207ZM45.6271 65.1388L44.4966 61.147C36.0787 31.4735 38.6398 10.186 51.5158 2.76447C64.1554 -4.52297 84.4147 4.09294 105.67 25.917L108.563 28.8805L105.67 31.844C98.1209 39.6935 91.2359 48.1433 85.047 57.1233L83.8845 58.752L81.8854 58.918C71.0086 59.7802 60.2275 61.5111 49.6508 64.1106L45.6271 65.1388ZM61.7923 8.69151C59.4994 8.69151 57.4684 9.15775 55.7695 10.1541C47.3196 15.0465 45.8251 32.01 51.6435 54.8943C60.7257 52.8632 69.9036 51.4326 79.1902 50.6023C84.5105 43.0147 90.3672 35.7655 96.6519 28.9443C83.38 16.0045 70.8042 8.69151 61.7923 8.69151ZM143.461 182.064C143.43 182.064 143.43 182.064 143.461 182.064C131.32 182.064 115.717 172.95 99.5516 156.318L96.6583 153.355L99.5516 150.391C107.101 142.542 113.986 134.092 120.175 125.112L121.305 123.483L123.304 123.285C134.181 122.455 144.962 120.724 155.571 118.093L159.595 117.096L160.725 121.088C169.143 150.762 166.582 172.017 153.706 179.432C150.576 181.227 147.051 182.134 143.461 182.064ZM108.563 153.291C121.835 166.231 134.411 173.55 143.423 173.55H143.455C145.716 173.55 147.747 173.052 149.446 172.087C157.896 167.195 159.429 150.231 153.572 127.347C144.49 129.378 135.273 130.809 126.025 131.607C120.705 139.227 114.848 146.438 108.563 153.291ZM159.595 65.1388L155.571 64.1106C144.962 61.5175 134.181 59.7866 123.304 58.918L121.305 58.752L120.175 57.1233C113.986 48.1433 107.101 39.6935 99.5516 31.844L96.6583 28.8805L99.5516 25.917C120.807 4.09294 141.066 -4.52297 153.706 2.76447C166.582 10.1797 169.143 31.4735 160.725 61.147L159.595 65.1388ZM126.032 50.6023C135.746 51.5028 144.994 52.9335 153.578 54.8943C159.435 32.01 157.902 15.0401 149.452 10.1541C141.034 5.30007 125.201 12.7472 108.57 28.9507C114.855 35.8039 120.679 43.021 126.032 50.6087V50.6023ZM61.7923 182.064C58.1965 182.128 54.639 181.233 51.5158 179.439C38.6398 172.023 36.0787 150.762 44.4966 121.094L45.6271 117.103L49.6508 118.099C59.4994 120.596 70.3443 122.321 81.8854 123.291L83.8845 123.489L85.015 125.118C91.2039 134.098 98.089 142.548 105.638 150.397L108.532 153.361L105.638 156.324C89.505 172.956 73.9018 182.07 61.7923 182.07V182.064ZM51.6499 127.347C45.7931 150.231 47.326 167.201 55.7758 172.087C64.1938 176.878 79.9949 169.494 96.6583 153.291C90.3736 146.438 84.5168 139.22 79.1966 131.601C69.9164 130.802 60.7321 129.378 51.6499 127.347ZM102.611 132.699C95.5917 132.699 88.4065 132.399 81.1893 131.799L79.1902 131.633L78.0278 129.972C73.9721 124.115 70.108 118.099 66.5505 111.91C62.9547 105.721 59.6655 99.4045 56.6061 92.9474L55.7439 91.1207L56.6061 89.2941C59.6655 82.8433 62.9611 76.5203 66.5505 70.3314C70.0761 64.2447 73.9338 58.158 78.0278 52.2693L79.1902 50.6087L81.1893 50.4426C95.4576 49.2419 109.796 49.2419 124.033 50.4426L126.032 50.6087L127.194 52.2693C135.344 63.9764 142.529 76.3862 148.616 89.2941L149.478 91.1207L148.616 92.9474C142.529 105.855 135.376 118.265 127.194 129.972L126.032 131.633L124.033 131.799C116.847 132.399 109.63 132.699 102.611 132.699ZM83.9165 123.451C96.4923 124.416 108.73 124.416 121.337 123.451C128.356 113.175 134.609 102.362 140.032 91.1143C134.641 79.8734 128.388 69.0604 121.305 58.7775C108.864 57.8131 96.3581 57.8131 83.9165 58.7775C76.8334 69.054 70.5743 79.867 65.1901 91.1143C70.6126 102.355 76.8653 113.168 83.9165 123.451Z" fill="black"/>
</svg>
