<svg width="215" height="172" viewBox="0 0 215 172" fill="none" xmlns="http://www.w3.org/2000/svg">
<path d="M93.603 171.718L73.2212 165.804C71.0827 165.203 69.8799 162.964 70.4813 160.826L116.09 3.71835C116.691 1.57993 118.93 0.377065 121.068 0.978496L141.45 6.89257C143.589 7.494 144.791 9.73266 144.19 11.8711L98.5815 168.978C97.9467 171.117 95.7414 172.353 93.603 171.718ZM55.5124 134.229L70.047 118.725C71.5839 117.088 71.4837 114.482 69.7797 112.978L39.5076 86.3483L69.7797 59.7183C71.4837 58.2147 71.6174 55.6085 70.047 53.9713L55.5124 38.4677C54.0088 36.8639 51.4694 36.7636 49.8322 38.3006L1.68429 83.408C-0.0197637 84.9784 -0.0197637 87.6848 1.68429 89.2552L49.8322 134.396C51.4694 135.933 54.0088 135.866 55.5124 134.229ZM164.839 134.429L212.987 89.2886C214.691 87.7182 214.691 85.0118 212.987 83.4414L164.839 38.2672C163.235 36.7636 160.696 36.8305 159.159 38.4343L144.624 53.9378C143.087 55.5751 143.188 58.1813 144.892 59.6848L175.164 86.3483L144.892 112.978C143.188 114.482 143.054 117.088 144.624 118.725L159.159 134.229C160.663 135.866 163.202 135.933 164.839 134.429Z" fill="black"/>
</svg>
